<svg id="visual" viewBox="0 0 1920 1080" width="1920" height="1080" xmlns="http://www.w3.org/2000/svg" xmlns:xlink="http://www.w3.org/1999/xlink" version="1.1"><rect x="0" y="0" width="1920" height="1080" fill="#001220"></rect><defs><linearGradient id="grad1_0" x1="43.8%" y1="0%" x2="100%" y2="100%"><stop offset="14.444444444444446%" stop-color="#fbae3c" stop-opacity="1"></stop><stop offset="85.55555555555554%" stop-color="#fbae3c" stop-opacity="1"></stop></linearGradient></defs><defs><linearGradient id="grad1_1" x1="43.8%" y1="0%" x2="100%" y2="100%"><stop offset="14.444444444444446%" stop-color="#fbae3c" stop-opacity="1"></stop><stop offset="85.55555555555554%" stop-color="#eb7458" stop-opacity="1"></stop></linearGradient></defs><defs><linearGradient id="grad1_2" x1="43.8%" y1="0%" x2="100%" y2="100%"><stop offset="14.444444444444446%" stop-color="#b84e6c" stop-opacity="1"></stop><stop offset="85.55555555555554%" stop-color="#eb7458" stop-opacity="1"></stop></linearGradient></defs><defs><linearGradient id="grad1_3" x1="43.8%" y1="0%" x2="100%" y2="100%"><stop offset="14.444444444444446%" stop-color="#b84e6c" stop-opacity="1"></stop><stop offset="85.55555555555554%" stop-color="#713c69" stop-opacity="1"></stop></linearGradient></defs><defs><linearGradient id="grad1_4" x1="43.8%" y1="0%" x2="100%" y2="100%"><stop offset="14.444444444444446%" stop-color="#2d2b4c" stop-opacity="1"></stop><stop offset="85.55555555555554%" stop-color="#713c69" stop-opacity="1"></stop></linearGradient></defs><defs><linearGradient id="grad1_5" x1="43.8%" y1="0%" x2="100%" y2="100%"><stop offset="14.444444444444446%" stop-color="#2d2b4c" stop-opacity="1"></stop><stop offset="85.55555555555554%" stop-color="#001220" stop-opacity="1"></stop></linearGradient></defs><defs><linearGradient id="grad2_0" x1="0%" y1="0%" x2="56.3%" y2="100%"><stop offset="14.444444444444446%" stop-color="#fbae3c" stop-opacity="1"></stop><stop offset="85.55555555555554%" stop-color="#fbae3c" stop-opacity="1"></stop></linearGradient></defs><defs><linearGradient id="grad2_1" x1="0%" y1="0%" x2="56.3%" y2="100%"><stop offset="14.444444444444446%" stop-color="#eb7458" stop-opacity="1"></stop><stop offset="85.55555555555554%" stop-color="#fbae3c" stop-opacity="1"></stop></linearGradient></defs><defs><linearGradient id="grad2_2" x1="0%" y1="0%" x2="56.3%" y2="100%"><stop offset="14.444444444444446%" stop-color="#eb7458" stop-opacity="1"></stop><stop offset="85.55555555555554%" stop-color="#b84e6c" stop-opacity="1"></stop></linearGradient></defs><defs><linearGradient id="grad2_3" x1="0%" y1="0%" x2="56.3%" y2="100%"><stop offset="14.444444444444446%" stop-color="#713c69" stop-opacity="1"></stop><stop offset="85.55555555555554%" stop-color="#b84e6c" stop-opacity="1"></stop></linearGradient></defs><defs><linearGradient id="grad2_4" x1="0%" y1="0%" x2="56.3%" y2="100%"><stop offset="14.444444444444446%" stop-color="#713c69" stop-opacity="1"></stop><stop offset="85.55555555555554%" stop-color="#2d2b4c" stop-opacity="1"></stop></linearGradient></defs><defs><linearGradient id="grad2_5" x1="0%" y1="0%" x2="56.3%" y2="100%"><stop offset="14.444444444444446%" stop-color="#001220" stop-opacity="1"></stop><stop offset="85.55555555555554%" stop-color="#2d2b4c" stop-opacity="1"></stop></linearGradient></defs><g transform="translate(1920, 0)"><path d="M0 810C-36.5 756.7 -73 703.4 -125.2 710C-177.4 716.7 -245.2 783.3 -277 761.2C-308.9 739.1 -304.9 628.3 -343.5 595C-382.1 561.6 -463.4 605.8 -487.9 581.4C-512.3 557.1 -480 464.3 -506.4 424.9C-532.7 385.4 -617.8 399.3 -645.2 372.5C-672.6 345.7 -642.2 278.1 -630.5 229.5C-618.8 180.9 -625.8 151.3 -658.8 116.2C-691.9 81.1 -750.9 40.5 -810 0L0 0Z" fill="#131f37"></path><path d="M0 675C-30.4 630.6 -60.9 586.2 -104.3 591.7C-147.8 597.2 -204.3 652.7 -230.9 634.3C-257.4 615.9 -254.1 523.6 -286.2 495.8C-318.4 468 -386.2 504.8 -406.6 484.5C-427 464.2 -400 386.9 -422 354.1C-443.9 321.2 -514.8 332.8 -537.7 310.4C-560.5 288.1 -535.2 231.7 -525.4 191.2C-515.7 150.7 -521.5 126 -549 96.8C-576.5 67.6 -625.8 33.8 -675 0L0 0Z" fill="#4d345e"></path><path d="M0 540C-24.3 504.5 -48.7 468.9 -83.5 473.4C-118.2 477.8 -163.4 522.2 -184.7 507.4C-205.9 492.7 -203.3 418.9 -229 396.6C-254.7 374.4 -308.9 403.8 -325.3 387.6C-341.6 371.4 -320 309.5 -337.6 283.3C-355.1 257 -411.9 266.2 -430.1 248.3C-448.4 230.4 -428.1 185.4 -420.4 153C-412.6 120.6 -417.2 100.8 -439.2 77.4C-461.2 54.1 -500.6 27 -540 0L0 0Z" fill="#96446e"></path><path d="M0 405C-18.3 378.4 -36.5 351.7 -62.6 355C-88.7 358.3 -122.6 391.6 -138.5 380.6C-154.5 369.5 -152.4 314.1 -171.7 297.5C-191.1 280.8 -231.7 302.9 -243.9 290.7C-256.2 278.5 -240 232.2 -253.2 212.4C-266.4 192.7 -308.9 199.7 -322.6 186.3C-336.3 172.8 -321.1 139 -315.3 114.7C-309.4 90.4 -312.9 75.6 -329.4 58.1C-345.9 40.5 -375.5 20.3 -405 0L0 0Z" fill="#d55e64"></path><path d="M0 270C-12.2 252.2 -24.3 234.5 -41.7 236.7C-59.1 238.9 -81.7 261.1 -92.3 253.7C-103 246.4 -101.6 209.4 -114.5 198.3C-127.4 187.2 -154.5 201.9 -162.6 193.8C-170.8 185.7 -160 154.8 -168.8 141.6C-177.6 128.5 -205.9 133.1 -215.1 124.2C-224.2 115.2 -214.1 92.7 -210.2 76.5C-206.3 60.3 -208.6 50.4 -219.6 38.7C-230.6 27 -250.3 13.5 -270 0L0 0Z" fill="#f88f4a"></path><path d="M0 135C-6.1 126.1 -12.2 117.2 -20.9 118.3C-29.6 119.4 -40.9 130.5 -46.2 126.9C-51.5 123.2 -50.8 104.7 -57.2 99.2C-63.7 93.6 -77.2 101 -81.3 96.9C-85.4 92.8 -80 77.4 -84.4 70.8C-88.8 64.2 -103 66.6 -107.5 62.1C-112.1 57.6 -107 46.3 -105.1 38.2C-103.1 30.1 -104.3 25.2 -109.8 19.4C-115.3 13.5 -125.2 6.8 -135 0L0 0Z" fill="#fbae3c"></path></g><g transform="translate(0, 1080)"><path d="M0 -810C33.4 -731.7 66.7 -653.3 115.6 -655.9C164.6 -658.5 229 -742 274 -752.7C318.9 -763.4 344.4 -701.4 390.5 -676.4C436.6 -651.3 503.2 -663.2 520.7 -620.5C538.1 -577.8 506.5 -480.3 508.7 -426.8C510.8 -373.3 546.7 -363.6 602.8 -348C658.8 -332.4 735 -310.7 741.4 -269.9C747.9 -229 684.6 -168.9 684.4 -120.7C684.3 -72.5 747.1 -36.3 810 0L0 0Z" fill="#131f37"></path><path d="M0 -675C27.8 -609.7 55.6 -544.4 96.4 -546.6C137.1 -548.7 190.8 -618.3 228.3 -627.2C265.8 -636.2 287 -584.5 325.4 -563.6C363.8 -542.8 419.3 -552.7 433.9 -517.1C448.5 -481.5 422.1 -400.3 423.9 -355.7C425.7 -311.1 455.6 -303 502.3 -290C549 -277 612.5 -258.9 617.8 -224.9C623.2 -190.8 570.5 -140.7 570.4 -100.6C570.2 -60.4 622.6 -30.2 675 0L0 0Z" fill="#4d345e"></path><path d="M0 -540C22.2 -487.8 44.5 -435.5 77.1 -437.3C109.7 -439 152.7 -494.6 182.6 -501.8C212.6 -509 229.6 -467.6 260.3 -450.9C291 -434.2 335.4 -442.2 347.1 -413.7C358.8 -385.2 337.7 -320.2 339.1 -284.5C340.5 -248.9 364.5 -242.4 401.8 -232C439.2 -221.6 490 -207.2 494.3 -179.9C498.6 -152.7 456.4 -112.6 456.3 -80.5C456.2 -48.3 498.1 -24.2 540 0L0 0Z" fill="#96446e"></path><path d="M0 -405C16.7 -365.8 33.4 -326.7 57.8 -327.9C82.3 -329.2 114.5 -371 137 -376.3C159.5 -381.7 172.2 -350.7 195.2 -338.2C218.3 -325.7 251.6 -331.6 260.3 -310.2C269.1 -288.9 253.3 -240.2 254.3 -213.4C255.4 -186.6 273.4 -181.8 301.4 -174C329.4 -166.2 367.5 -155.4 370.7 -134.9C373.9 -114.5 342.3 -84.4 342.2 -60.3C342.1 -36.3 373.6 -18.1 405 0L0 0Z" fill="#d55e64"></path><path d="M0 -270C11.1 -243.9 22.2 -217.8 38.5 -218.6C54.9 -219.5 76.3 -247.3 91.3 -250.9C106.3 -254.5 114.8 -233.8 130.2 -225.5C145.5 -217.1 167.7 -221.1 173.6 -206.8C179.4 -192.6 168.8 -160.1 169.6 -142.3C170.3 -124.4 182.2 -121.2 200.9 -116C219.6 -110.8 245 -103.6 247.1 -90C249.3 -76.3 228.2 -56.3 228.1 -40.2C228.1 -24.2 249 -12.1 270 0L0 0Z" fill="#f88f4a"></path><path d="M0 -135C5.6 -121.9 11.1 -108.9 19.3 -109.3C27.4 -109.7 38.2 -123.7 45.7 -125.4C53.2 -127.2 57.4 -116.9 65.1 -112.7C72.8 -108.6 83.9 -110.5 86.8 -103.4C89.7 -96.3 84.4 -80.1 84.8 -71.1C85.1 -62.2 91.1 -60.6 100.5 -58C109.8 -55.4 122.5 -51.8 123.6 -45C124.6 -38.2 114.1 -28.1 114.1 -20.1C114 -12.1 124.5 -6 135 0L0 0Z" fill="#fbae3c"></path></g></svg>